<svg width="40" height="38" viewBox="0 0 40 38" fill="none" xmlns="http://www.w3.org/2000/svg" xmlns:xlink="http://www.w3.org/1999/xlink">
<path d="M37.623,9.757L29.243,1.379C28.965,1.101 28.634,0.88 28.27,0.729C27.906,0.578 27.516,0.5 27.122,0.5C26.728,0.5 26.337,0.578 25.973,0.729C25.609,0.88 25.279,1.101 25,1.379L1.879,24.5C1.6,24.778 1.378,25.108 1.227,25.472C1.076,25.836 0.999,26.226 1,26.621L1,35C1,35.796 1.316,36.559 1.879,37.121C2.441,37.684 3.204,38 4,38L35.5,38C35.898,38 36.279,37.842 36.561,37.561C36.842,37.279 37,36.898 37,36.5C37,36.102 36.842,35.721 36.561,35.439C36.279,35.158 35.898,35 35.5,35L16.623,35L37.623,14C37.901,13.721 38.122,13.391 38.273,13.027C38.424,12.663 38.501,12.272 38.501,11.878C38.501,11.484 38.424,11.094 38.273,10.73C38.122,10.366 37.901,10.035 37.623,9.757ZM12.379,35L4,35L4,26.621L20.5,10.121L28.879,18.5L12.379,35ZM31,16.379L22.623,8L27.123,3.5L35.5,11.879L31,16.379Z" fill="#94989E"/>
</svg>
