<svg width="40" height="40" viewBox="0 0 40 40" fill="none" xmlns="http://www.w3.org/2000/svg" xmlns:xlink="http://www.w3.org/1999/xlink">
<path d="M19,0.5C15.143,0.5 11.373,1.644 8.166,3.786C4.96,5.929 2.46,8.975 0.984,12.538C-0.492,16.101 -0.878,20.022 -0.125,23.804C0.627,27.587 2.484,31.061 5.211,33.789C7.939,36.516 11.413,38.373 15.196,39.125C18.978,39.878 22.899,39.492 26.462,38.016C30.025,36.54 33.071,34.04 35.214,30.834C37.356,27.627 38.5,23.857 38.5,20C38.495,14.83 36.438,9.873 32.783,6.217C29.127,2.562 24.17,0.505 19,0.5ZM19,36.5C15.737,36.5 12.547,35.532 9.833,33.719C7.12,31.906 5.005,29.329 3.756,26.314C2.507,23.299 2.18,19.982 2.817,16.781C3.454,13.58 5.025,10.64 7.333,8.333C9.64,6.025 12.58,4.454 15.781,3.817C18.982,3.18 22.299,3.507 25.314,4.756C28.329,6.005 30.906,8.12 32.719,10.833C34.532,13.547 35.5,16.737 35.5,20C35.495,24.375 33.755,28.569 30.662,31.662C27.569,34.755 23.375,36.495 19,36.5ZM26.5,23.75C26.5,25.142 25.947,26.478 24.962,27.462C23.978,28.447 22.642,29 21.25,29L20.5,29L20.5,30.5C20.5,30.898 20.342,31.279 20.061,31.561C19.779,31.842 19.398,32 19,32C18.602,32 18.221,31.842 17.939,31.561C17.658,31.279 17.5,30.898 17.5,30.5L17.5,29L14.5,29C14.102,29 13.721,28.842 13.439,28.561C13.158,28.279 13,27.898 13,27.5C13,27.102 13.158,26.721 13.439,26.439C13.721,26.158 14.102,26 14.5,26L21.25,26C21.847,26 22.419,25.763 22.841,25.341C23.263,24.919 23.5,24.347 23.5,23.75C23.5,23.153 23.263,22.581 22.841,22.159C22.419,21.737 21.847,21.5 21.25,21.5L16.75,21.5C15.358,21.5 14.022,20.947 13.038,19.962C12.053,18.978 11.5,17.642 11.5,16.25C11.5,14.858 12.053,13.522 13.038,12.538C14.022,11.553 15.358,11 16.75,11L17.5,11L17.5,9.5C17.5,9.102 17.658,8.721 17.939,8.439C18.221,8.158 18.602,8 19,8C19.398,8 19.779,8.158 20.061,8.439C20.342,8.721 20.5,9.102 20.5,9.5L20.5,11L23.5,11C23.898,11 24.279,11.158 24.561,11.439C24.842,11.721 25,12.102 25,12.5C25,12.898 24.842,13.279 24.561,13.561C24.279,13.842 23.898,14 23.5,14L16.75,14C16.153,14 15.581,14.237 15.159,14.659C14.737,15.081 14.5,15.653 14.5,16.25C14.5,16.847 14.737,17.419 15.159,17.841C15.581,18.263 16.153,18.5 16.75,18.5L21.25,18.5C22.642,18.5 23.978,19.053 24.962,20.038C25.947,21.022 26.5,22.358 26.5,23.75Z" fill="#94989E"/>
</svg>
