<svg width="42" height="42" viewBox="0 0 42 42" fill="none" xmlns="http://www.w3.org/2000/svg" xmlns:xlink="http://www.w3.org/1999/xlink">
<path d="M40.621,19.5L22,0.879C21.722,0.6 21.392,0.378 21.028,0.227C20.664,0.076 20.274,-0.001 19.879,0L2.5,0C2.102,0 1.721,0.158 1.439,0.439C1.158,0.721 1,1.102 1,1.5L1,18.879C0.999,19.274 1.076,19.664 1.227,20.028C1.378,20.392 1.6,20.722 1.879,21L20.5,39.621C20.779,39.899 21.109,40.12 21.473,40.271C21.837,40.422 22.228,40.5 22.622,40.5C23.016,40.5 23.406,40.422 23.77,40.271C24.134,40.12 24.465,39.899 24.743,39.621L40.621,23.743C40.899,23.465 41.12,23.134 41.271,22.77C41.422,22.406 41.5,22.016 41.5,21.622C41.5,21.228 41.422,20.837 41.271,20.473C41.12,20.109 40.899,19.779 40.621,19.5ZM22.621,37.5L4,18.879L4,3L19.879,3L38.5,21.621L22.621,37.5ZM13,9.75C13,10.195 12.868,10.63 12.621,11C12.374,11.37 12.022,11.658 11.611,11.829C11.2,11.999 10.748,12.044 10.311,11.957C9.875,11.87 9.474,11.656 9.159,11.341C8.844,11.026 8.63,10.625 8.543,10.189C8.456,9.753 8.501,9.3 8.671,8.889C8.842,8.478 9.13,8.126 9.5,7.879C9.87,7.632 10.305,7.5 10.75,7.5C11.347,7.5 11.919,7.737 12.341,8.159C12.763,8.581 13,9.153 13,9.75Z" fill="#94989E"/>
</svg>
