<svg width="16" height="28" viewBox="0 0 16 28" fill="none" xmlns="http://www.w3.org/2000/svg" xmlns:xlink="http://www.w3.org/1999/xlink">
<path d="M14.307,14.884L1.807,27.384C1.691,27.5 1.553,27.593 1.401,27.655C1.249,27.718 1.087,27.751 0.922,27.751C0.758,27.751 0.595,27.718 0.444,27.655C0.292,27.593 0.154,27.5 0.038,27.384C-0.078,27.268 -0.17,27.13 -0.233,26.979C-0.296,26.827 -0.328,26.664 -0.328,26.5C-0.328,26.336 -0.296,26.173 -0.233,26.021C-0.17,25.87 -0.078,25.732 0.038,25.616L11.655,14L0.038,2.384C-0.197,2.15 -0.328,1.832 -0.328,1.5C-0.328,1.168 -0.197,0.85 0.038,0.616C0.273,0.381 0.591,0.249 0.922,0.249C1.254,0.249 1.572,0.381 1.807,0.616L14.307,13.116C14.423,13.232 14.515,13.37 14.578,13.521C14.641,13.673 14.673,13.836 14.673,14C14.673,14.164 14.641,14.327 14.578,14.479C14.515,14.63 14.423,14.768 14.307,14.884Z" fill="#C9CCD2"/>
</svg>
